<?xml version="1.0" encoding="UTF-8" standalone="no"?>
<svg
   xmlns:dc="http://purl.org/dc/elements/1.1/"
   xmlns:cc="http://creativecommons.org/ns#"
   xmlns:rdf="http://www.w3.org/1999/02/22-rdf-syntax-ns#"
   xmlns:svg="http://www.w3.org/2000/svg"
   xmlns="http://www.w3.org/2000/svg"
   viewBox="0 0 636.24127 121.82812"
   height="121.82812"
   width="636.24127"
   xml:space="preserve"
   version="1.1"
   id="svg2"><metadata
     id="metadata8"><rdf:RDF><cc:Work
         rdf:about=""><dc:format>image/svg+xml</dc:format><dc:type
           rdf:resource="http://purl.org/dc/dcmitype/StillImage" /></cc:Work></rdf:RDF></metadata><defs
     id="defs6"><clipPath
       id="clipPath16"
       clipPathUnits="userSpaceOnUse"><path
         id="path18"
         d="m 0,97.463 508.993,0 L 508.993,0 0,0 0,97.463 Z" /></clipPath></defs><g
     transform="matrix(1.25,0,0,-1.25,0,121.82813)"
     id="g10"><g
       id="g12"><g
         clip-path="url(#clipPath16)"
         id="g14"><g
           transform="translate(109.0111,57.504)"
           id="g20"><path
             id="path22"
             style="fill:#ffffff;fill-opacity:1;fill-rule:nonzero;stroke:none"
             d="m 0,0 c -6.452,0 -11.635,-2.122 -15.551,-6.359 -3.918,-4.24 -5.875,-9.769 -5.875,-16.588 0,-6.822 1.957,-12.351 5.875,-16.588 3.916,-4.239 9.099,-6.359 15.551,-6.359 6.542,0 11.749,2.144 15.62,6.428 3.87,4.286 5.805,9.792 5.805,16.519 0,6.727 -1.935,12.233 -5.805,16.52 C 11.749,-2.143 6.542,0 0,0 M -24.191,1.521 C -17.742,8.245 -9.677,11.61 0,11.61 c 4.699,0 9.099,-0.898 13.201,-2.695 4.098,-1.797 7.693,-4.263 10.782,-7.394 3.087,-3.134 5.506,-6.798 7.256,-10.99 1.75,-4.195 2.627,-8.687 2.627,-13.478 0,-4.794 -0.854,-9.285 -2.557,-13.478 -1.706,-4.194 -4.078,-7.856 -7.12,-10.99 -3.04,-3.134 -6.635,-5.597 -10.781,-7.394 C 9.261,-56.606 4.79,-57.504 0,-57.504 c -4.886,0 -9.379,0.898 -13.478,2.695 -4.101,1.797 -7.672,4.26 -10.713,7.394 -3.041,3.134 -5.415,6.796 -7.119,10.99 -1.706,4.193 -2.557,8.684 -2.557,13.478 0,9.766 3.225,17.922 9.676,24.468" /></g><g
           transform="translate(197.3496,15.897)"
           id="g24"><path
             id="path26"
             style="fill:#ffffff;fill-opacity:1;fill-rule:nonzero;stroke:none"
             d="m 0,0 8.294,-8.156 c -6.358,-5.162 -13.639,-7.741 -21.84,-7.741 -10.23,0 -18.433,3.294 -24.606,9.882 -6.175,6.588 -9.262,14.814 -9.262,24.675 0,9.677 3.25,17.854 9.746,24.536 6.497,6.68 14.536,10.021 24.122,10.021 8.201,0 15.482,-2.579 21.84,-7.741 L 0.138,37.184 c -3.871,2.947 -8.432,4.423 -13.684,4.423 -6.359,0 -11.405,-2.099 -15.136,-6.291 -3.733,-4.192 -5.599,-9.745 -5.599,-16.656 0,-6.911 1.866,-12.464 5.599,-16.656 3.731,-4.195 8.777,-6.291 15.136,-6.291 5.343,0 9.859,1.429 13.546,4.287" /></g><g
           transform="translate(55.4647,97.4625)"
           id="g28"><path
             id="path30"
             style="fill:#ffffff;fill-opacity:1;fill-rule:nonzero;stroke:none"
             d="m 0,0 12.44,0 0,-96.763 -32.484,0 c -10.045,0 -18.201,3.202 -24.465,9.606 -6.271,6.404 -9.402,14.492 -9.402,24.26 0,9.585 3.25,17.626 9.746,24.122 6.498,6.498 14.215,9.744 23.154,9.744 5.713,0 11.058,-1.381 16.033,-4.144 l 0,-12.443 c -4.607,3.317 -9.952,4.977 -16.033,4.977 -5.529,0 -10.207,-2.051 -14.032,-6.151 -3.824,-4.101 -5.734,-9.47 -5.734,-16.105 0,-6.727 1.818,-12.119 5.458,-16.172 3.641,-4.056 8.731,-6.081 15.275,-6.081 L 0,-85.15 0,0 Z" /></g><g
           transform="translate(231.8065,1.3817)"
           id="g32"><path
             id="path34"
             style="fill:#ffffff;fill-opacity:1;fill-rule:nonzero;stroke:none"
             d="m 0,0 -14.421,0 0,72.949 37.892,0 c 12.682,0 22.143,-1.927 28.384,-5.781 6.239,-3.855 9.359,-9.92 9.359,-18.189 l 0,-48.979 -14.42,0 0,50.334 c 0,4.729 -2.126,8.146 -6.37,10.27 -4.243,2.118 -9.843,3.177 -16.799,3.177 L 0,63.781 0,0 Z" /></g><g
           transform="translate(340.7853,65.163)"
           id="g36"><path
             id="path38"
             style="fill:#ffffff;fill-opacity:1;fill-rule:nonzero;stroke:none"
             d="m 0,0 -23.625,0 c -6.956,0 -12.556,-1.059 -16.799,-3.177 -4.244,-2.125 -6.37,-5.541 -6.37,-10.27 l 0,-50.334 -14.42,0 0,48.979 c 0,8.269 3.12,14.334 9.359,18.188 6.241,3.855 15.702,5.782 28.384,5.782 l 37.892,0 0,-72.949 L 0,-63.781 0,0 Z" /></g><g
           transform="translate(400.7884,57.504)"
           id="g40"><path
             id="path42"
             style="fill:#ffffff;fill-opacity:1;fill-rule:nonzero;stroke:none"
             d="m 0,0 c -6.452,0 -11.635,-2.122 -15.551,-6.359 -3.918,-4.24 -5.875,-9.769 -5.875,-16.588 0,-6.822 1.957,-12.351 5.875,-16.588 3.916,-4.239 9.099,-6.359 15.551,-6.359 6.542,0 11.749,2.144 15.62,6.428 3.87,4.286 5.805,9.792 5.805,16.519 0,6.727 -1.935,12.233 -5.805,16.52 C 11.749,-2.143 6.542,0 0,0 M -24.191,1.521 C -17.742,8.245 -9.677,11.61 0,11.61 c 4.699,0 9.099,-0.898 13.201,-2.695 4.098,-1.797 7.693,-4.263 10.782,-7.394 3.087,-3.134 5.506,-6.798 7.256,-10.99 1.75,-4.195 2.627,-8.687 2.627,-13.478 0,-4.794 -0.854,-9.285 -2.557,-13.478 -1.706,-4.194 -4.078,-7.856 -7.12,-10.99 -3.04,-3.134 -6.635,-5.597 -10.781,-7.394 C 9.261,-56.606 4.79,-57.504 0,-57.504 c -4.886,0 -9.379,0.898 -13.478,2.695 -4.101,1.797 -7.672,4.26 -10.713,7.394 -3.041,3.134 -5.415,6.796 -7.119,10.99 -1.706,4.193 -2.557,8.684 -2.557,13.478 0,9.766 3.225,17.922 9.676,24.468" /></g><g
           transform="translate(455.0821,12.3125)"
           id="g44"><path
             id="path46"
             style="fill:#ffffff;fill-opacity:1;fill-rule:nonzero;stroke:none"
             d="m 0,0 20.044,0 c 6.544,0 11.634,2.025 15.275,6.081 3.64,4.053 5.458,9.445 5.458,16.172 0,6.635 -1.91,12.005 -5.734,16.105 -3.825,4.1 -8.503,6.151 -14.032,6.151 -6.081,0 -11.426,-1.66 -16.033,-4.977 l 0,12.443 c 4.975,2.763 10.32,4.145 16.033,4.145 8.939,0 16.656,-3.247 23.154,-9.745 6.496,-6.496 9.746,-14.537 9.746,-24.122 0,-9.768 -3.131,-17.856 -9.402,-24.26 -6.264,-6.404 -14.42,-9.606 -24.465,-9.606 l -32.484,0 0,96.763 L 0,85.15 0,0 Z" /></g></g></g></g></svg>