<?xml version="1.0" encoding="iso-8859-1"?>
<!-- Generator: Adobe Illustrator 19.1.0, SVG Export Plug-In . SVG Version: 6.00 Build 0)  -->
<svg version="1.1" id="Objects" xmlns="http://www.w3.org/2000/svg" xmlns:xlink="http://www.w3.org/1999/xlink" x="0px" y="0px"
	 viewBox="0 0 505.47 505.47" style="enable-background:new 0 0 505.47 505.47;" xml:space="preserve">
<style type="text/css">
	.st0{opacity:0.26;fill:url(#SVGID_1_);}
	.st1{fill:#231F20;}
	.st2{fill:#1C75BC;}
</style>
<radialGradient id="SVGID_1_" cx="210.4058" cy="349.809" r="100.1165" gradientTransform="matrix(3.0413 0 0 0.4539 -390.359 280.8042)" gradientUnits="userSpaceOnUse">
	<stop  offset="0.005" style="stop-color:#000000"/>
	<stop  offset="1" style="stop-color:#FFFFFF;stop-opacity:0"/>
</radialGradient>
<ellipse class="st0" cx="249.548" cy="439.582" rx="304.485" ry="45.443"/>
<path class="st1" d="M178.85,298.07c2.763-2.881,6.218-4.323,10.364-4.323c2.013,0,3.898,0.385,5.656,1.155
	c1.756,0.77,3.296,1.827,4.62,3.168c1.322,1.343,2.359,2.912,3.109,4.708c0.75,1.797,1.125,3.722,1.125,5.774
	c0,2.054-0.366,3.978-1.096,5.774c-0.731,1.797-1.747,3.366-3.05,4.708c-1.303,1.343-2.843,2.398-4.619,3.168
	c-1.777,0.77-3.692,1.155-5.744,1.155c-2.093,0-4.018-0.385-5.774-1.155c-1.757-0.77-3.287-1.825-4.59-3.168
	c-1.303-1.343-2.32-2.911-3.05-4.708c-0.731-1.796-1.096-3.72-1.096-5.774C174.704,304.369,176.086,300.874,178.85,298.07z
	 M189.214,298.721c-2.764,0-4.985,0.909-6.663,2.724c-1.679,1.816-2.517,4.185-2.517,7.107c0,2.923,0.838,5.291,2.517,7.107
	c1.678,1.816,3.898,2.725,6.663,2.725c2.803,0,5.034-0.918,6.692-2.754c1.658-1.837,2.487-4.195,2.487-7.077
	c0-2.882-0.829-5.241-2.487-7.077C194.248,299.64,192.016,298.721,189.214,298.721z"/>
<path class="st1" d="M227.061,316.547l3.553,3.494c-2.724,2.211-5.843,3.316-9.357,3.316c-4.383,0-7.897-1.411-10.542-4.234
	c-2.646-2.823-3.968-6.347-3.968-10.572c0-4.146,1.392-7.649,4.175-10.512c2.784-2.862,6.228-4.293,10.335-4.293
	c3.513,0,6.633,1.105,9.357,3.316l-3.494,3.553c-1.658-1.263-3.612-1.895-5.863-1.895c-2.724,0-4.886,0.899-6.485,2.695
	c-1.599,1.796-2.399,4.175-2.399,7.136c0,2.961,0.8,5.34,2.399,7.136c1.599,1.797,3.76,2.695,6.485,2.695
	C223.546,318.384,225.481,317.772,227.061,316.547z"/>
<path class="st1" d="M166.273,281.602h5.33v41.456h-13.917c-4.303,0-7.798-1.372-10.482-4.115
	c-2.686-2.744-4.028-6.209-4.028-10.394c0-4.107,1.392-7.551,4.175-10.334c2.784-2.784,6.09-4.175,9.92-4.175
	c2.448,0,4.738,0.592,6.869,1.776v5.331c-1.974-1.421-4.264-2.133-6.869-2.133c-2.369,0-4.373,0.879-6.012,2.636
	c-1.639,1.757-2.457,4.057-2.457,6.9c0,2.882,0.779,5.193,2.339,6.929c1.56,1.738,3.741,2.605,6.544,2.605h8.588V281.602z"/>
<path class="st2" d="M129.02,191.332c0.872,12.221,11.22,21.54,23.338,21.273c5.14,15.71,13.816,28.574,25.494,37.611
	c11.462,8.875,25.238,13.596,39.353,13.596c2.052,0,4.105-0.101,6.165-0.301c15.024-1.467,28.784-8.286,38.733-19.194
	c9.129-10.006,14.64-22.909,16.208-37.673h39.684c19.065,0,28.594-9.532,28.594-28.594v-17.871c0-7.152,4.761-10.726,14.3-10.726
	v-14.297c-9.539,0-14.3-3.576-14.3-10.726v-17.871c0-19.063-9.53-28.594-28.594-28.594v14.297c9.526,0,14.291,4.767,14.291,14.297
	v17.871c0,10.485,4.774,16.446,14.304,17.874c-9.53,1.428-14.304,7.386-14.304,17.875v17.871c0,9.53-4.765,14.297-14.291,14.297
	H226.04c-9.535,0-14.299-4.768-14.299-14.297v-17.871c0-10.489-4.765-16.447-14.299-17.875c9.535-1.428,14.299-7.389,14.299-17.874
	v-17.871c0-9.53,4.765-14.297,14.299-14.297V77.963c-19.064,0-28.599,9.532-28.599,28.594v17.871c0,7.15-4.765,10.726-14.295,10.726
	v14.297c9.53,0,14.295,3.574,14.295,10.726v17.871c0,19.062,9.535,28.594,28.599,28.594h38.653
	c-3.51,27.348-23.155,41.479-42.641,43.381c-21.803,2.126-46.634-10.158-56.863-41.698c6.251-4.489,10.112-12.023,9.526-20.245
	c-0.897-12.597-11.876-22.116-24.474-21.224C137.646,167.755,128.123,178.734,129.02,191.332z M151.205,180.376
	c5.142-0.368,9.626,3.521,9.992,8.668c0.368,5.145-3.521,9.626-8.665,9.994c-5.149,0.368-9.631-3.523-9.999-8.668
	C142.17,185.226,146.056,180.744,151.205,180.376z"/>
<path class="st1" d="M302.939,106.022c-3.067-1.651-6.484,1.53-8.487,3.417c-4.591,4.476-8.481,9.661-12.841,14.372
	c-4.834,5.185-9.31,10.374-14.258,15.437c-2.831,2.831-5.892,5.892-7.778,9.429c-4.24-4.126-7.895-8.602-12.606-12.254
	c-3.417-2.595-9.073-4.482-8.958,1.766c0.236,8.129,7.428,16.851,12.727,22.386c2.237,2.36,5.183,4.833,8.6,4.949
	c4.126,0.236,8.366-4.713,10.84-7.423c4.361-4.712,7.899-10.016,11.904-14.844c5.183-6.363,10.488-12.611,15.551-19.09
	C300.817,120.159,310.833,110.263,302.939,106.022L302.939,106.022z"/>
<path class="st2" d="M241.823,322.766h-6.178v-31.254h16.234c5.433,0,9.487,0.826,12.16,2.477c2.673,1.652,4.01,4.25,4.01,7.792
	v20.984h-6.178v-21.565c0-2.026-0.911-3.49-2.729-4.4c-1.818-0.907-4.217-1.361-7.197-1.361h-10.122V322.766z"/>
<path class="st2" d="M288.513,295.44h-10.122c-2.98,0-5.38,0.454-7.197,1.361c-1.818,0.91-2.729,2.374-2.729,4.4v21.565h-6.178
	v-20.984c0-3.543,1.337-6.141,4.01-7.792c2.674-1.651,6.727-2.477,12.16-2.477h16.234v31.254h-6.178V295.44z"/>
<path class="st2" d="M303.856,298.07c2.763-2.881,6.218-4.323,10.364-4.323c2.013,0,3.898,0.385,5.656,1.155
	c1.756,0.77,3.296,1.827,4.62,3.168c1.322,1.343,2.359,2.912,3.109,4.708c0.75,1.797,1.125,3.722,1.125,5.774
	c0,2.054-0.366,3.978-1.096,5.774c-0.731,1.797-1.747,3.366-3.05,4.708c-1.303,1.343-2.843,2.398-4.619,3.168
	c-1.777,0.77-3.692,1.155-5.745,1.155c-2.093,0-4.018-0.385-5.774-1.155c-1.757-0.77-3.287-1.825-4.59-3.168
	c-1.303-1.343-2.32-2.911-3.05-4.708c-0.731-1.796-1.096-3.72-1.096-5.774C299.711,304.369,301.092,300.874,303.856,298.07z
	 M314.22,298.721c-2.764,0-4.985,0.909-6.663,2.724c-1.679,1.816-2.517,4.185-2.517,7.107c0,2.923,0.838,5.291,2.517,7.107
	c1.678,1.816,3.898,2.725,6.663,2.725c2.803,0,5.034-0.918,6.692-2.754c1.658-1.837,2.487-4.195,2.487-7.077
	c0-2.882-0.829-5.241-2.487-7.077C319.254,299.64,317.023,298.721,314.22,298.721z"/>
<path class="st2" d="M337.482,318.083h8.588c2.803,0,4.984-0.868,6.544-2.605c1.56-1.736,2.339-4.047,2.339-6.929
	c0-2.843-0.818-5.143-2.457-6.9c-1.639-1.757-3.643-2.636-6.012-2.636c-2.605,0-4.895,0.711-6.869,2.133v-5.331
	c2.131-1.184,4.422-1.776,6.869-1.776c3.83,0,7.136,1.391,9.92,4.175c2.783,2.783,4.175,6.228,4.175,10.334
	c0,4.185-1.341,7.65-4.028,10.394c-2.684,2.744-6.178,4.115-10.482,4.115h-13.917v-41.456h5.33V318.083z"/>
<g>
	<path d="M125.007,352.383c0.607,0.397,1.682,0.817,2.71,0.817c1.495,0,2.196-0.747,2.196-1.682c0-0.981-0.584-1.519-2.103-2.079
		c-2.033-0.725-2.99-1.846-2.99-3.2c0-1.822,1.472-3.317,3.901-3.317c1.145,0,2.149,0.327,2.78,0.7l-0.514,1.495
		c-0.444-0.28-1.261-0.653-2.312-0.653c-1.215,0-1.892,0.7-1.892,1.541c0,0.935,0.677,1.355,2.149,1.916
		c1.962,0.747,2.967,1.729,2.967,3.411c0,1.985-1.542,3.387-4.228,3.387c-1.238,0-2.383-0.304-3.177-0.771L125.007,352.383z"/>
	<path d="M140.799,354.485l-0.164-1.425h-0.07c-0.63,0.888-1.845,1.682-3.458,1.682c-2.289,0-3.457-1.611-3.457-3.247
		c0-2.733,2.429-4.229,6.798-4.205v-0.233c0-0.935-0.257-2.616-2.57-2.616c-1.051,0-2.149,0.327-2.943,0.841l-0.467-1.355
		c0.935-0.607,2.29-1.004,3.714-1.004c3.458,0,4.298,2.359,4.298,4.625v4.229c0,0.981,0.047,1.939,0.187,2.71H140.799z
		 M140.496,348.715c-2.243-0.047-4.789,0.351-4.789,2.547c0,1.331,0.888,1.962,1.939,1.962c1.472,0,2.406-0.935,2.733-1.892
		c0.07-0.211,0.117-0.444,0.117-0.654V348.715z"/>
	<path d="M155.26,351.401c0,1.168,0.023,2.196,0.094,3.084h-1.822l-0.117-1.846h-0.047c-0.537,0.911-1.729,2.103-3.738,2.103
		c-1.775,0-3.901-0.981-3.901-4.952v-6.611h2.056v6.261c0,2.149,0.654,3.598,2.523,3.598c1.378,0,2.336-0.958,2.71-1.869
		c0.117-0.304,0.187-0.678,0.187-1.051v-6.938h2.056V351.401z M153.858,338.296l-2.85,3.341h-1.472l2.056-3.341H153.858z"/>
	<path d="M168.435,337.898v13.667c0,1.004,0.023,2.149,0.094,2.92h-1.846l-0.093-1.962h-0.047c-0.631,1.261-2.009,2.219-3.854,2.219
		c-2.733,0-4.836-2.312-4.836-5.747c-0.023-3.761,2.313-6.073,5.069-6.073c1.729,0,2.897,0.817,3.411,1.729h0.047v-6.752H168.435z
		 M166.379,347.78c0-0.257-0.023-0.607-0.093-0.864c-0.304-1.308-1.425-2.383-2.967-2.383c-2.125,0-3.387,1.869-3.387,4.369
		c0,2.289,1.122,4.182,3.341,4.182c1.378,0,2.64-0.911,3.014-2.453c0.07-0.28,0.093-0.561,0.093-0.888V347.78z"/>
	<path d="M172.991,349.206c0.047,2.779,1.822,3.925,3.878,3.925c1.472,0,2.359-0.258,3.13-0.585l0.351,1.473
		c-0.724,0.326-1.962,0.7-3.761,0.7c-3.481,0-5.56-2.289-5.56-5.7c0-3.41,2.009-6.097,5.303-6.097c3.691,0,4.672,3.247,4.672,5.326
		c0,0.42-0.046,0.747-0.07,0.958H172.991z M179.018,347.734c0.023-1.309-0.538-3.341-2.85-3.341c-2.079,0-2.99,1.915-3.154,3.341
		H179.018z"/>
	<path d="M188.503,346.239c0-1.169-0.023-2.126-0.094-3.061h1.822l0.117,1.869h0.047c0.561-1.075,1.869-2.126,3.738-2.126
		c1.565,0,3.995,0.935,3.995,4.812v6.751h-2.056v-6.518c0-1.822-0.677-3.341-2.617-3.341c-1.354,0-2.406,0.958-2.756,2.103
		c-0.093,0.257-0.14,0.607-0.14,0.958v6.798h-2.056V346.239z"/>
	<path d="M207.729,354.485l-0.164-1.425h-0.07c-0.631,0.888-1.845,1.682-3.458,1.682c-2.289,0-3.457-1.611-3.457-3.247
		c0-2.733,2.429-4.229,6.798-4.205v-0.233c0-0.935-0.257-2.616-2.57-2.616c-1.051,0-2.149,0.327-2.943,0.841l-0.467-1.355
		c0.935-0.607,2.29-1.004,3.714-1.004c3.458,0,4.298,2.359,4.298,4.625v4.229c0,0.981,0.047,1.939,0.187,2.71H207.729z
		 M207.425,348.715c-2.243-0.047-4.789,0.351-4.789,2.547c0,1.331,0.888,1.962,1.939,1.962c1.472,0,2.406-0.935,2.733-1.892
		c0.07-0.211,0.117-0.444,0.117-0.654V348.715z"/>
	<path d="M217.68,346.869c0-1.448-0.047-2.616-0.094-3.69h1.846l0.093,1.938h0.047c0.841-1.378,2.172-2.195,4.018-2.195
		c2.733,0,4.789,2.312,4.789,5.746c0,4.065-2.476,6.074-5.14,6.074c-1.495,0-2.803-0.654-3.48-1.775h-0.047v6.145h-2.032V346.869z
		 M219.712,349.883c0,0.304,0.047,0.584,0.093,0.842c0.374,1.425,1.612,2.406,3.084,2.406c2.172,0,3.434-1.776,3.434-4.369
		c0-2.266-1.191-4.205-3.364-4.205c-1.401,0-2.71,1.005-3.107,2.547c-0.07,0.257-0.14,0.561-0.14,0.841V349.883z"/>
	<path d="M241.205,348.738c0,4.182-2.896,6.004-5.63,6.004c-3.061,0-5.42-2.242-5.42-5.816c0-3.785,2.477-6.004,5.607-6.004
		C239.009,342.922,241.205,345.281,241.205,348.738z M232.234,348.855c0,2.477,1.425,4.345,3.434,4.345
		c1.962,0,3.434-1.846,3.434-4.392c0-1.916-0.958-4.345-3.387-4.345S232.234,346.706,232.234,348.855z"/>
	<path d="M243.797,346.239c0-1.169-0.023-2.126-0.093-3.061h1.822l0.116,1.869h0.047c0.561-1.075,1.869-2.126,3.737-2.126
		c1.565,0,3.995,0.935,3.995,4.812v6.751h-2.056v-6.518c0-1.822-0.678-3.341-2.616-3.341c-1.355,0-2.406,0.958-2.757,2.103
		c-0.094,0.257-0.141,0.607-0.141,0.958v6.798h-2.056V346.239z"/>
	<path d="M259.146,339.932v3.247h2.943v1.565h-2.943v6.097c0,1.401,0.397,2.196,1.542,2.196c0.537,0,0.935-0.07,1.191-0.141
		l0.094,1.542c-0.397,0.164-1.028,0.28-1.822,0.28c-0.958,0-1.729-0.304-2.22-0.864c-0.584-0.607-0.794-1.612-0.794-2.943v-6.167
		h-1.752v-1.565h1.752v-2.71L259.146,339.932z"/>
	<path d="M270.663,354.485l-0.163-1.425h-0.07c-0.631,0.888-1.846,1.682-3.457,1.682c-2.29,0-3.458-1.611-3.458-3.247
		c0-2.733,2.43-4.229,6.799-4.205v-0.233c0-0.935-0.258-2.616-2.57-2.616c-1.051,0-2.149,0.327-2.943,0.841l-0.467-1.355
		c0.934-0.607,2.289-1.004,3.714-1.004c3.458,0,4.299,2.359,4.299,4.625v4.229c0,0.981,0.047,1.939,0.187,2.71H270.663z
		 M270.359,348.715c-2.242-0.047-4.789,0.351-4.789,2.547c0,1.331,0.888,1.962,1.939,1.962c1.472,0,2.406-0.935,2.733-1.892
		c0.07-0.211,0.116-0.444,0.116-0.654V348.715z"/>
	<path d="M290.379,337.898v13.667c0,1.004,0.023,2.149,0.093,2.92h-1.845l-0.094-1.962h-0.047c-0.631,1.261-2.009,2.219-3.854,2.219
		c-2.733,0-4.836-2.312-4.836-5.747c-0.023-3.761,2.312-6.073,5.069-6.073c1.729,0,2.896,0.817,3.411,1.729h0.047v-6.752H290.379z
		 M288.324,347.78c0-0.257-0.023-0.607-0.094-0.864c-0.304-1.308-1.425-2.383-2.967-2.383c-2.126,0-3.388,1.869-3.388,4.369
		c0,2.289,1.121,4.182,3.341,4.182c1.378,0,2.64-0.911,3.014-2.453c0.07-0.28,0.094-0.561,0.094-0.888V347.78z"/>
	<path d="M304.022,348.738c0,4.182-2.896,6.004-5.63,6.004c-3.061,0-5.42-2.242-5.42-5.816c0-3.785,2.477-6.004,5.606-6.004
		C301.826,342.922,304.022,345.281,304.022,348.738z M295.051,348.855c0,2.477,1.425,4.345,3.435,4.345
		c1.962,0,3.434-1.846,3.434-4.392c0-1.916-0.958-4.345-3.388-4.345C296.103,344.464,295.051,346.706,295.051,348.855z"/>
	<path d="M306.335,352.383c0.607,0.397,1.683,0.817,2.71,0.817c1.495,0,2.196-0.747,2.196-1.682c0-0.981-0.584-1.519-2.103-2.079
		c-2.032-0.725-2.99-1.846-2.99-3.2c0-1.822,1.472-3.317,3.901-3.317c1.145,0,2.149,0.327,2.78,0.7l-0.515,1.495
		c-0.443-0.28-1.262-0.653-2.312-0.653c-1.215,0-1.893,0.7-1.893,1.541c0,0.935,0.678,1.355,2.149,1.916
		c1.963,0.747,2.967,1.729,2.967,3.411c0,1.985-1.542,3.387-4.229,3.387c-1.238,0-2.383-0.304-3.177-0.771L306.335,352.383z"/>
	<path d="M330.585,337.898v13.667c0,1.004,0.023,2.149,0.093,2.92h-1.845l-0.094-1.962h-0.047c-0.631,1.261-2.009,2.219-3.854,2.219
		c-2.733,0-4.836-2.312-4.836-5.747c-0.023-3.761,2.312-6.073,5.069-6.073c1.729,0,2.896,0.817,3.411,1.729h0.047v-6.752H330.585z
		 M328.529,347.78c0-0.257-0.023-0.607-0.094-0.864c-0.304-1.308-1.425-2.383-2.967-2.383c-2.126,0-3.388,1.869-3.388,4.369
		c0,2.289,1.121,4.182,3.341,4.182c1.378,0,2.64-0.911,3.014-2.453c0.07-0.28,0.094-0.561,0.094-0.888V347.78z"/>
	<path d="M335.139,349.206c0.047,2.779,1.822,3.925,3.879,3.925c1.472,0,2.359-0.258,3.13-0.585l0.351,1.473
		c-0.725,0.326-1.963,0.7-3.762,0.7c-3.48,0-5.56-2.289-5.56-5.7c0-3.41,2.009-6.097,5.303-6.097c3.691,0,4.673,3.247,4.673,5.326
		c0,0.42-0.047,0.747-0.07,0.958H335.139z M341.167,347.734c0.023-1.309-0.537-3.341-2.85-3.341c-2.079,0-2.99,1.915-3.154,3.341
		H341.167z"/>
	<path d="M355.463,337.898v13.667c0,1.004,0.023,2.149,0.093,2.92h-1.845l-0.094-1.962h-0.047c-0.631,1.261-2.009,2.219-3.854,2.219
		c-2.733,0-4.836-2.312-4.836-5.747c-0.023-3.761,2.312-6.073,5.069-6.073c1.729,0,2.896,0.817,3.411,1.729h0.047v-6.752H355.463z
		 M353.408,347.78c0-0.257-0.023-0.607-0.094-0.864c-0.304-1.308-1.425-2.383-2.967-2.383c-2.126,0-3.388,1.869-3.388,4.369
		c0,2.289,1.121,4.182,3.341,4.182c1.378,0,2.64-0.911,3.014-2.453c0.07-0.28,0.094-0.561,0.094-0.888V347.78z"/>
	<path d="M369.106,348.738c0,4.182-2.896,6.004-5.63,6.004c-3.061,0-5.42-2.242-5.42-5.816c0-3.785,2.477-6.004,5.606-6.004
		C366.91,342.922,369.106,345.281,369.106,348.738z M360.135,348.855c0,2.477,1.425,4.345,3.435,4.345
		c1.962,0,3.434-1.846,3.434-4.392c0-1.916-0.958-4.345-3.388-4.345C361.187,344.464,360.135,346.706,360.135,348.855z"/>
	<path d="M371.419,352.383c0.607,0.397,1.683,0.817,2.71,0.817c1.495,0,2.196-0.747,2.196-1.682c0-0.981-0.584-1.519-2.103-2.079
		c-2.032-0.725-2.99-1.846-2.99-3.2c0-1.822,1.472-3.317,3.901-3.317c1.145,0,2.149,0.327,2.78,0.7l-0.515,1.495
		c-0.443-0.28-1.262-0.653-2.312-0.653c-1.215,0-1.893,0.7-1.893,1.541c0,0.935,0.678,1.355,2.149,1.916
		c1.963,0.747,2.967,1.729,2.967,3.411c0,1.985-1.542,3.387-4.229,3.387c-1.238,0-2.383-0.304-3.177-0.771L371.419,352.383z"/>
</g>
<g>
</g>
<g>
</g>
<g>
</g>
<g>
</g>
<g>
</g>
<g>
</g>
</svg>
